<?xml version="1.0" standalone="no"?>
<!DOCTYPE svg PUBLIC "-//W3C//DTD SVG 1.1//EN"
  "http://www.w3.org/Graphics/SVG/1.1/DTD/svg11.dtd">
<svg version="1.1" xmlns="http://www.w3.org/2000/svg" xmlns:xlink="http://www.w3.org/1999/xlink" width="1920" height="1080" viewBox="-1040.888888888889 -32 1889.7777777777778 1063" id="ccdiagram"><filter id="grayscale"><feColorMatrix type="matrix" values="0.3333 0.3333 0.3333 0 0 0.3333 0.3333 0.3333 0 0 0.3333 0.3333 0.3333 0 0 0 0 0 1 0"></feColorMatrix></filter><defs><style type="text/css">@import url('https://fonts.googleapis.com/css?family=Open+Sans:400,700|Inconsolata:400');</style></defs><g><rect x="-1040.888888888889" y="-32" width="1889.7777777777778" height="1063" fill="none" id="interactionLayer"></rect><g pointer-events="auto"></g><g pointer-events="auto"></g><g pointer-events="auto"></g><g></g><g pointer-events="auto"></g><g></g><g pointer-events="auto"></g><g pointer-events="auto"></g><g pointer-events="none"></g><g pointer-events="auto"><g id="1b66a7d9-741e-40cb-bb98-8b9133550ce8-a1fdb9a8-3114-4def-ac37-bc960ec0ab72"><g cursor="cell"><line x1="-617" y1="679" x2="-60" y2="838" stroke="red" stroke-width="8" opacity="0"></line><line x1="-617" y1="679" x2="-60" y2="838" stroke="#000000" stroke-width="2" stroke-linecap="round"></line><polygon points="-48 842, -65 830, -64 837, -75 841, -48 842" stroke-linejoin="round" fill="#000000" stroke="#000000" stroke-width="1"></polygon></g></g><g id="cf041317-2cfd-4684-ab61-01ffa97b5ef5-c16fcbb0-ac4c-4c43-b4d8-f036e44fb3b9"><g cursor="cell"><line x1="9" y1="809" x2="297" y2="552" stroke="red" stroke-width="8" opacity="0"></line><line x1="9" y1="809" x2="297" y2="552" stroke="#000000" stroke-width="2" stroke-linecap="round"></line><polygon points="304 546, 281 554, 294 554, 300 561, 304 546" stroke-linejoin="round" fill="#000000" stroke="#000000" stroke-width="1"></polygon></g></g><g id="13993251-c4ab-4662-a3d5-30427f41d5b0-d2bfdea7-1b87-4687-9e2f-33efe36c5c52"><g cursor="cell"><line x1="-429" y1="566" x2="-362" y2="605" stroke="red" stroke-width="8" opacity="0"></line><line x1="-429" y1="566" x2="-362" y2="605" stroke="#000000" stroke-width="2" stroke-linecap="round"></line><polygon points="-352 611, -361 596, -364 603, -378 605, -352 611" stroke-linejoin="round" fill="#000000" stroke="#000000" stroke-width="1"></polygon></g></g><g id="6b889248-39fd-47ae-a63d-dc3b3dd69dd5-4b20bc4b-98cf-46a1-ae27-cfb51018c0bb"><g cursor="cell"><line x1="-535" y1="457" x2="-406" y2="383" stroke="red" stroke-width="8" opacity="0"></line><line x1="-535" y1="457" x2="-406" y2="383" stroke="#000000" stroke-width="2" stroke-linecap="round"></line><polygon points="-397 377, -422 383, -409 385, -406 392, -397 377" stroke-linejoin="round" fill="#000000" stroke="#000000" stroke-width="1"></polygon></g></g><g id="57cc2829-0b2d-41dd-8bb7-b35d43c263d9-bdac8116-cc04-4b37-a0f6-1b3a1d812634"><g cursor="cell"><line x1="112" y1="620" x2="246" y2="542" stroke="red" stroke-width="8" opacity="0"></line><line x1="112" y1="620" x2="246" y2="542" stroke="#000000" stroke-width="2" stroke-linecap="round"></line><polygon points="256 537, 230 542, 244 544, 247 551, 256 537" stroke-linejoin="round" fill="#000000" stroke="#000000" stroke-width="1"></polygon></g></g><g id="1b66a7d9-741e-40cb-bb98-8b9133550ce8-ec68e238-863e-4f94-b96c-39f91eb42014"><g cursor="cell"><line x1="-617" y1="679" x2="-205" y2="738" stroke="red" stroke-width="8" opacity="0"></line><line x1="-617" y1="679" x2="-205" y2="738" stroke="#000000" stroke-width="2" stroke-linecap="round"></line><polygon points="-192 740, -213 730, -209 738, -219 743, -192 740" stroke-linejoin="round" fill="#000000" stroke="#000000" stroke-width="1"></polygon></g></g><g id="6b889248-39fd-47ae-a63d-dc3b3dd69dd5-1b66a7d9-741e-40cb-bb98-8b9133550ce8"><g cursor="cell"><line x1="-597" y1="493" x2="-618" y2="646" stroke="red" stroke-width="8" opacity="0"></line><line x1="-597" y1="493" x2="-618" y2="646" stroke="#000000" stroke-width="2" stroke-linecap="round"></line><polygon points="-620 654, -606 641, -618 644, -629 639, -620 654" stroke-linejoin="round" fill="#000000" stroke="#000000" stroke-width="1"></polygon></g></g><g id="ec68e238-863e-4f94-b96c-39f91eb42014-57cc2829-0b2d-41dd-8bb7-b35d43c263d9"><g cursor="cell"><line x1="-128" y1="740" x2="21" y2="671" stroke="red" stroke-width="8" opacity="0"></line><line x1="-128" y1="740" x2="21" y2="671" stroke="#000000" stroke-width="2" stroke-linecap="round"></line><polygon points="32 666, 6 670, 18 672, 20 680, 32 666" stroke-linejoin="round" fill="#000000" stroke="#000000" stroke-width="1"></polygon></g></g><g id="13993251-c4ab-4662-a3d5-30427f41d5b0-1b66a7d9-741e-40cb-bb98-8b9133550ce8"><g cursor="cell"><line x1="-480" y1="574" x2="-610" y2="649" stroke="red" stroke-width="8" opacity="0"></line><line x1="-480" y1="574" x2="-610" y2="649" stroke="#000000" stroke-width="2" stroke-linecap="round"></line><polygon points="-620 654, -594 649, -607 647, -610 639, -620 654" stroke-linejoin="round" fill="#000000" stroke="#000000" stroke-width="1"></polygon></g></g><g id="1b66a7d9-741e-40cb-bb98-8b9133550ce8-6b889248-39fd-47ae-a63d-dc3b3dd69dd5"><g cursor="cell"><line x1="-620" y1="654" x2="-598" y2="501" stroke="red" stroke-width="8" opacity="0"></line><line x1="-620" y1="654" x2="-598" y2="501" stroke="#000000" stroke-width="2" stroke-linecap="round"></line><polygon points="-597 493, -611 507, -599 503, -588 508, -597 493" stroke-linejoin="round" fill="#000000" stroke="#000000" stroke-width="1"></polygon></g></g><g id="13993251-c4ab-4662-a3d5-30427f41d5b0-6b889248-39fd-47ae-a63d-dc3b3dd69dd5"><g cursor="cell"><line x1="-505" y1="522" x2="-534" y2="505" stroke="red" stroke-width="8" opacity="0"></line><line x1="-505" y1="522" x2="-534" y2="505" stroke="#000000" stroke-width="2" stroke-linecap="round"></line><polygon points="-544 500, -535 514, -532 507, -518 505, -544 500" stroke-linejoin="round" fill="#000000" stroke="#000000" stroke-width="1"></polygon></g></g><g id="57cc2829-0b2d-41dd-8bb7-b35d43c263d9-aab96390-644e-4a30-ab56-55220eb86d1e"><g cursor="cell"><line x1="112" y1="620" x2="97" y2="433" stroke="red" stroke-width="8" opacity="0"></line><line x1="112" y1="620" x2="97" y2="433" stroke="#000000" stroke-width="2" stroke-linecap="round"></line><polygon points="96 426, 86 440, 97 436, 109 439, 96 426" stroke-linejoin="round" fill="#000000" stroke="#000000" stroke-width="1"></polygon></g></g><g id="d2bfdea7-1b87-4687-9e2f-33efe36c5c52-97576f70-81d9-4a23-b6c5-1efa1cf91e57"><g cursor="cell"><line x1="-288" y1="611" x2="-170" y2="542" stroke="red" stroke-width="8" opacity="0"></line><line x1="-288" y1="611" x2="-170" y2="542" stroke="#000000" stroke-width="2" stroke-linecap="round"></line><polygon points="-160 537, -186 542, -172 544, -169 551, -160 537" stroke-linejoin="round" fill="#000000" stroke="#000000" stroke-width="1"></polygon></g></g><g id="97576f70-81d9-4a23-b6c5-1efa1cf91e57-a3ad6d24-fa85-455d-b886-36ae2cd330e6"><g cursor="cell"><line x1="-80" y1="490" x2="22" y2="431" stroke="red" stroke-width="8" opacity="0"></line><line x1="-80" y1="490" x2="22" y2="431" stroke="#000000" stroke-width="2" stroke-linecap="round"></line><polygon points="32 426, 6 431, 20 433, 23 440, 32 426" stroke-linejoin="round" fill="#000000" stroke="#000000" stroke-width="1"></polygon></g></g></g><g pointer-events="auto"><g opacity="1"><g id="a3ad6d24-fa85-455d-b886-36ae2cd330e6" transform="translate(0 0)"><svg x="18" y="284" height="148.981" width="91.956" viewBox="0 0 24.33 39.418"><g transform="translate(240.35 -115.335)"><path d="M-240.082 146.018v4.445l6.973 4.025v-4.445z" fill="#d2d2d4" fill-rule="evenodd" stroke-width=".214"></path><path d="M-233.11 150.043l9.858-.003v4.445l-9.857.003z" fill="#d2d2d4" fill-rule="evenodd" stroke-width=".214"></path><path d="M-223.252 150.04l6.967-4.027v4.445l-6.967 4.028z" fill="#b8b8bb" fill-rule="evenodd" stroke-width=".214"></path><path d="M-223.252 150.04v4.445" fill="none" fill-rule="evenodd" stroke="#83838a" stroke-width=".267"></path><path d="M302.99-2468.894l-36.732 47.87-59.823 7.876-47.87-36.732-7.875-59.823 36.732-47.87 59.822-7.876 47.87 36.732z" fill="#848586" stroke="#83838a" stroke-width="2.151" transform="matrix(.0995 .07485 -.12957 .05747 -573.282 269.258)"></path><path d="M-240.082 139.12v4.445l6.973 4.025v-4.445z" fill="#d2d2d4" fill-rule="evenodd" stroke-width=".214"></path><path d="M-233.11 143.145l9.858-.003v4.445l-9.857.003z" fill="#d2d2d4" fill-rule="evenodd" stroke-width=".214"></path><path d="M-223.252 143.143l6.967-4.028v4.445l-6.967 4.028z" fill="#b8b8bb" fill-rule="evenodd" stroke-width=".214"></path><path d="M302.99-2468.894l-36.732 47.87-59.823 7.876-47.87-36.732-7.875-59.823 36.732-47.87 59.822-7.876 47.87 36.732z" fill="#848586" stroke="#83838a" stroke-width="2.151" transform="matrix(.0995 .07485 -.12957 .05747 -573.282 262.36)"></path><path d="M-240.082 132.222v4.445l6.973 4.025v-4.445z" fill="#d2d2d4" fill-rule="evenodd" stroke-width=".214"></path><path d="M-233.11 136.247l9.858-.003v4.445l-9.857.003z" fill="#d2d2d4" fill-rule="evenodd" stroke-width=".214"></path><path d="M-223.252 136.245l6.967-4.028v4.445l-6.967 4.028z" fill="#b8b8bb" fill-rule="evenodd" stroke-width=".214"></path><path d="M302.99-2468.894l-36.732 47.87-59.823 7.876-47.87-36.732-7.875-59.823 36.732-47.87 59.822-7.876 47.87 36.732z" fill="#848586" stroke="#83838a" stroke-width="2.151" transform="matrix(.0995 .07485 -.12957 .05747 -573.282 255.462)"></path><path d="M-240.082 125.324v4.445l6.973 4.025v-4.445z" fill="#d2d2d4" fill-rule="evenodd" stroke-width=".214"></path><path d="M-233.11 129.349l9.858-.003v4.445l-9.857.003z" fill="#d2d2d4" fill-rule="evenodd" stroke-width=".214"></path><path d="M-223.252 129.347l6.967-4.028v4.445l-6.967 4.028z" fill="#b8b8bb" fill-rule="evenodd" stroke-width=".214"></path><path d="M-223.252 129.347l-9.857.002-6.973-4.025-.003-5.694 6.967-4.028 9.857-.002 6.973 4.025.003 5.694z" fill="#ececed" stroke-width="2.151"></path><path d="M-240.082 125.324l6.964 4.074 9.866-.053 6.967-4.026M-233.118 129.398l.008 4.396M-223.252 129.345v4.445" fill="none" fill-rule="evenodd" stroke="#83838a" stroke-width=".267"></path><path d="M-240.085 119.63l.003 10.139 6.972 4.025 9.857-.003 6.966-4.027-.002-10.14-6.972-4.025-9.857.003z" fill="none" fill-rule="evenodd" stroke="#000000" stroke-width=".529"></path><path d="M-223.252 136.242v4.446M-233.11 136.247v4.445" fill="none" fill-rule="evenodd" stroke="#83838a" stroke-width=".267"></path><path d="M-240.082 132.222v4.445l6.973 4.025 9.857-.003 6.966-4.027.002-4.446-6.968 4.026-9.865.054z" fill="none" fill-rule="evenodd" stroke="#000000" stroke-width=".529"></path><path d="M-233.11 143.145v4.445M-223.252 143.141v4.446" fill="none" fill-rule="evenodd" stroke="#83838a" stroke-width=".267"></path><path d="M-240.082 139.12v4.445l6.973 4.025 9.857-.003 6.966-4.026.002-4.446-6.968 4.028-9.857.003z" fill="none" fill-rule="evenodd" stroke="#000000" stroke-width=".529"></path><path d="M-240.082 146.018v4.445l6.973 4.025 9.857-.003 6.967-4.026v-4.445l-6.967 4.026-9.857.003z" fill="none" fill-rule="evenodd" stroke="#000000" stroke-width=".529"></path><path d="M-233.11 150.043v4.445" fill="none" fill-rule="evenodd" stroke="#83838a" stroke-width=".267"></path><circle cx="-9.268" cy="254.217" fill="#4286c5" r="5.832" stroke-width=".534" transform="scale(1.22475 .7071) rotate(45)"></circle><path d="M-227.78 122.24q.75.433 1.536.73.788.298 1.43.362l-.538.31q-.218.127-.73.046-.513-.08-1.181-.34-.669-.26-1.327-.64-.657-.38-1.108-.766-.45-.386-.59-.681-.138-.296.08-.422l.537-.31q.111.37.626.825.516.454 1.265.887zm-2.428 1.403q.749.432 1.536.73.788.297 1.43.361l-.538.31q-.218.127-.73.046-.513-.08-1.182-.34-.668-.26-1.326-.64-.657-.38-1.108-.766-.45-.386-.59-.681-.139-.296.08-.422l.537-.31q.11.37.626.825.516.454 1.265.887zm1.214-.701q.749.432 1.536.73.788.297 1.43.361l-.538.31q-.218.126-.73.046-.513-.08-1.181-.34-.669-.26-1.327-.64-.657-.38-1.108-.766-.45-.386-.59-.681-.138-.296.08-.422l.537-.31q.111.37.626.825.516.454 1.265.887zm3.642-2.103q.657.38 1.108.766.45.386.59.681.139.296-.08.422l-.404.234q-.218.126-.73.045-.513-.08-1.181-.34-.67-.26-1.327-.64-.657-.38-1.108-.766-.45-.386-.59-.681-.139-.296.08-.422l.404-.234q.218-.126.73-.045.513.08 1.182.34.668.26 1.326.64z" fill="#ffffff" stroke-width=".267"></path></g></svg></g></g><g opacity="1"><g id="7fc1f4da-88b1-446d-87b1-dc438aefaba4" transform="translate(0 0)"><svg x="237" y="435" height="115.695" width="100.625" viewBox="0 0 26.624 30.611"><path d="M13.312.306v15l12.99-7.5z" fill="#4286c5" fill-rule="evenodd"></path><path d="m.321 7.806 12.99 7.5v-15z" fill="#26527b" fill-rule="evenodd"></path><path d="M13.312.306v15" fill="none" stroke="#020406" stroke-width=".265"></path><path d="m13.312 15.306 12.99-7.5-6.495 18.75-6.495 3.75z" fill="#26527b" fill-rule="evenodd"></path><path d="m.321 7.806 12.99 7.5v15l-6.494-3.75z" fill="#326ca2" fill-rule="evenodd"></path><path d="m.321 7.806 12.99 7.5 12.991-7.5-12.99 7.5v15" fill="none" stroke="#0e1e2d" stroke-width=".265"></path><path d="m13.312.306-12.99 7.5 6.495 18.75 6.495 3.75 6.495-3.75 6.495-18.75z" fill="none" stroke="#000000" stroke-width=".529"></path></svg></g></g><g opacity="1"><g id="4b20bc4b-98cf-46a1-ae27-cfb51018c0bb" transform="translate(0 0)"><svg x="-435" y="268" height="115.695" width="100.625" viewBox="0 0 26.624 30.611"><path d="M13.312.306v15l12.99-7.5z" fill="#4286c5" fill-rule="evenodd"></path><path d="m.321 7.806 12.99 7.5v-15z" fill="#26527b" fill-rule="evenodd"></path><path d="M13.312.306v15" fill="none" stroke="#020406" stroke-width=".265"></path><path d="m13.312 15.306 12.99-7.5-6.495 18.75-6.495 3.75z" fill="#26527b" fill-rule="evenodd"></path><path d="m.321 7.806 12.99 7.5v15l-6.494-3.75z" fill="#326ca2" fill-rule="evenodd"></path><path d="m.321 7.806 12.99 7.5 12.991-7.5-12.99 7.5v15" fill="none" stroke="#0e1e2d" stroke-width=".265"></path><path d="m13.312.306-12.99 7.5 6.495 18.75 6.495 3.75 6.495-3.75 6.495-18.75z" fill="none" stroke="#000000" stroke-width=".529"></path></svg></g></g><g opacity="1"><g id="97576f70-81d9-4a23-b6c5-1efa1cf91e57" transform="translate(0 0)"><svg x="-176" y="432" height="113.438" width="96" viewBox="0 0 25.4 30.014"><g transform="translate(412.599 -86.957)"><path d="M-412.332 102.354v4.786l8.289 4.786h8.29l8.288-4.786v-4.786l-8.289-4.786h-8.29z" fill="#3c3c3c" fill-rule="evenodd"></path><path d="m-395.754 111.926 8.29-4.786v4.786l-8.29 4.785z" fill="#090909" fill-rule="evenodd"></path><path d="M-404.043 111.926h8.29v4.785h-8.29zm-8.29-4.786v4.786l8.29 4.785v-4.785z" fill="#232323" fill-rule="evenodd"></path><path d="m-412.332 107.14 8.289 4.786h8.29l8.288-4.786m-16.578 4.786v4.785m8.29-4.785v4.785" fill="none" stroke="#000" stroke-width=".266"></path><path d="M-412.332 102.354v9.572l8.289 4.785h8.29l8.288-4.785v-9.572l-8.289-4.786h-8.29z" fill="none" stroke="#000000" stroke-width=".532"></path><path d="M-412.333 97.178v4.786l8.29 4.786h8.289l8.29-4.786v-4.786l-8.29-4.786h-8.29z" fill="#3c3c3c" fill-rule="evenodd"></path><path d="m-395.754 106.75 8.29-4.786v4.786l-8.29 4.786z" fill="#090909" fill-rule="evenodd"></path><path d="M-404.044 106.75h8.29v4.786h-8.29z" fill="#232323" fill-rule="evenodd"></path><path d="M-412.333 101.964v4.786l8.29 4.786v-4.786z" fill="#232323" fill-rule="evenodd"></path><path d="m-412.333 101.964 8.29 4.786h8.289l8.29-4.786m-16.58 4.786v4.786m8.29-4.786v4.786" fill="none" stroke="#000" stroke-width=".266"></path><path d="M-412.333 97.178v9.572l8.29 4.786h8.289l8.29-4.786v-9.572l-8.29-4.786h-8.29z" fill="none" stroke="#000000" stroke-width=".532"></path><path d="M-412.333 92.01v4.785l8.29 4.786h8.289l8.29-4.786v-4.786l-8.29-4.786h-8.29z" fill="#3c3c3c" fill-rule="evenodd"></path><path d="m-395.754 101.58 8.29-4.785v4.786l-8.29 4.786z" fill="#090909" fill-rule="evenodd"></path><path d="M-404.044 101.58h8.29v4.787h-8.29z" fill="#232323" fill-rule="evenodd"></path><path d="M-412.333 96.795v4.786l8.29 4.786v-4.786z" fill="#232323" fill-rule="evenodd"></path><path d="m-412.333 96.795 8.29 4.786h8.289l8.29-4.786m-16.58 4.785v4.787m8.29-4.787v4.787" fill="none" stroke="#000" stroke-width=".266"></path><path d="M-412.333 92.01v9.57l8.29 4.787h8.289l8.29-4.786v-9.572l-8.29-4.786h-8.29z" fill="none" stroke="#000000" stroke-width=".532"></path><circle cx="-136.478" cy="325.284" fill="#f4b934" r="5.801" transform="scale(1.22475 .7071) rotate(45)"></circle><g font-family="sans-serif" font-size="3.191" stroke-width=".266" style="line-height: 0%;"><path d="m-127.434 301.586-.302-.818q-.136-.375-.321-.512-.18-.136-.638-.136h-.545v-1.144h1.007q.887 0 1.364.375.482.375.813 1.26l2.23 5.94h-1.744l-1.085-2.862-1.144 2.862h-1.743z" fill="#ffffff" font-family="Droid Serif" font-size="9.971" transform="scale(1.31605 .75985) rotate(45)" style="line-height: 1.25;"></path></g></g></svg></g></g><g opacity="1"><g id="57cc2829-0b2d-41dd-8bb7-b35d43c263d9" transform="translate(0 0)"><svg x="16" y="562" height="113.438" width="96" viewBox="0 0 25.4 30.014"><g transform="translate(412.599 -86.957)"><path d="M-412.332 102.354v4.786l8.289 4.786h8.29l8.288-4.786v-4.786l-8.289-4.786h-8.29z" fill="#3c3c3c" fill-rule="evenodd"></path><path d="m-395.754 111.926 8.29-4.786v4.786l-8.29 4.785z" fill="#090909" fill-rule="evenodd"></path><path d="M-404.043 111.926h8.29v4.785h-8.29zm-8.29-4.786v4.786l8.29 4.785v-4.785z" fill="#232323" fill-rule="evenodd"></path><path d="m-412.332 107.14 8.289 4.786h8.29l8.288-4.786m-16.578 4.786v4.785m8.29-4.785v4.785" fill="none" stroke="#000" stroke-width=".266"></path><path d="M-412.332 102.354v9.572l8.289 4.785h8.29l8.288-4.785v-9.572l-8.289-4.786h-8.29z" fill="none" stroke="#000000" stroke-width=".532"></path><path d="M-412.333 97.178v4.786l8.29 4.786h8.289l8.29-4.786v-4.786l-8.29-4.786h-8.29z" fill="#3c3c3c" fill-rule="evenodd"></path><path d="m-395.754 106.75 8.29-4.786v4.786l-8.29 4.786z" fill="#090909" fill-rule="evenodd"></path><path d="M-404.044 106.75h8.29v4.786h-8.29z" fill="#232323" fill-rule="evenodd"></path><path d="M-412.333 101.964v4.786l8.29 4.786v-4.786z" fill="#232323" fill-rule="evenodd"></path><path d="m-412.333 101.964 8.29 4.786h8.289l8.29-4.786m-16.58 4.786v4.786m8.29-4.786v4.786" fill="none" stroke="#000" stroke-width=".266"></path><path d="M-412.333 97.178v9.572l8.29 4.786h8.289l8.29-4.786v-9.572l-8.29-4.786h-8.29z" fill="none" stroke="#000000" stroke-width=".532"></path><path d="M-412.333 92.01v4.785l8.29 4.786h8.289l8.29-4.786v-4.786l-8.29-4.786h-8.29z" fill="#3c3c3c" fill-rule="evenodd"></path><path d="m-395.754 101.58 8.29-4.785v4.786l-8.29 4.786z" fill="#090909" fill-rule="evenodd"></path><path d="M-404.044 101.58h8.29v4.787h-8.29z" fill="#232323" fill-rule="evenodd"></path><path d="M-412.333 96.795v4.786l8.29 4.786v-4.786z" fill="#232323" fill-rule="evenodd"></path><path d="m-412.333 96.795 8.29 4.786h8.289l8.29-4.786m-16.58 4.785v4.787m8.29-4.787v4.787" fill="none" stroke="#000" stroke-width=".266"></path><path d="M-412.333 92.01v9.57l8.29 4.787h8.289l8.29-4.786v-9.572l-8.29-4.786h-8.29z" fill="none" stroke="#000000" stroke-width=".532"></path><circle cx="-136.478" cy="325.284" fill="#f4b934" r="5.801" transform="scale(1.22475 .7071) rotate(45)"></circle><g font-family="sans-serif" font-size="3.191" stroke-width=".266" style="line-height: 0%;"><path d="m-127.434 301.586-.302-.818q-.136-.375-.321-.512-.18-.136-.638-.136h-.545v-1.144h1.007q.887 0 1.364.375.482.375.813 1.26l2.23 5.94h-1.744l-1.085-2.862-1.144 2.862h-1.743z" fill="#ffffff" font-family="Droid Serif" font-size="9.971" transform="scale(1.31605 .75985) rotate(45)" style="line-height: 1.25;"></path></g></g></svg></g></g><g opacity="1"><g id="6b889248-39fd-47ae-a63d-dc3b3dd69dd5" transform="translate(0 0)"><svg x="-624" y="361" height="148.142" width="93" viewBox="0 0 24.606 39.196"><g transform="translate(-90.671 -137.288)"><path d="M91.985 141.821l14.632 8.448 7.316-4.224-14.632-8.447z" fill="#ececed" fill-rule="evenodd" stroke-width=".268"></path><path d="M91.985 165.958l-1.045 1.81v-1.207z" fill="#d2d2d4" fill-rule="evenodd" stroke-width=".268"></path><path d="M91.985 165.958l14.632 8.447-1.046 1.81-14.566-8.56zM106.617 174.405l-1.046 1.81h2.09z" fill="#d2d2d4" fill-rule="evenodd" stroke-width=".268"></path><path d="M91.985 141.821v24.137l14.632 8.447V150.27z" fill="#d2d2d4" fill-rule="evenodd" stroke-width=".268"></path><path d="M106.617 174.405l1.045 1.81 7.316-4.223v-1.207l-1.045-.603z" fill="#b8b8bb" fill-rule="evenodd" stroke-width=".268"></path><path d="M106.617 150.27l7.316-4.225v24.137l-7.316 4.223z" fill="#b8b8bb" fill-rule="evenodd" stroke-width=".268"></path><g fill="none" fill-rule="evenodd" stroke="#83838a"><path d="M113.933 170.182l-7.316 4.223-14.632-8.447-1.045 1.81M91.985 141.821l14.632 8.448 7.316-4.224M106.617 150.27v24.135M105.571 176.216l1.046-1.81 1.045 1.81M113.933 170.182l1.045 1.81" stroke-width=".26818"></path></g><path d="M90.94 167.768v-1.207l1.045-.603V141.82l7.316-4.223 14.632 8.447v24.137l1.045.603v1.207l-7.316 4.224h-2.09z" fill="none" fill-rule="evenodd" stroke="#000000" stroke-width=".529"></path><ellipse cx="141.009" cy="74.394" fill="#4286c5" rx="6.047" ry="4.714" stroke-width=".278" transform="matrix(.19572 .98066 .96381 .26658 0 0)"></ellipse><ellipse cx="141.009" cy="74.394" fill="#ffffff" rx="5.037" ry="3.927" stroke-width=".278" transform="matrix(.19572 .98066 .96381 .26658 0 0)"></ellipse><path d="M99.03 153.239c-3.067 2.89-1.034 7.41.27 9.702" fill="none" fill-rule="evenodd" stroke="#4286c5" stroke-width=".51973284"></path><g transform="translate(374.17 163.896) scale(.26818)"><ellipse cx="272.14" cy="-1124.64" fill="#4286c5" rx="3.335" ry="2.648" transform="matrix(.19572 .98066 .96381 .26658 0 0)"></ellipse><ellipse cx="290.38" cy="-1128.297" fill="#4286c5" rx="3.687" ry="2.835" transform="matrix(.19572 .98066 .96381 .26658 0 0)"></ellipse><ellipse cx="290.282" cy="-1113.221" fill="#4286c5" rx="3.51" ry="2.717" transform="matrix(.19572 .98066 .96381 .26658 0 0)"></ellipse><path d="M-1033.087-41.48c4.26 21.344 17.38 30.943 23.61 33.65M-1039.896-25.075c12.675 15.122 22.864 16.4 30.106 8.948" fill="none" fill-rule="evenodd" stroke="#4286c5" stroke-width="1.938"></path></g></g></svg></g></g><g opacity="1"><g id="13993251-c4ab-4662-a3d5-30427f41d5b0" transform="translate(0 0)"><svg x="-505" y="493" height="93.28" width="81" viewBox="0 0 21.431 24.68"><path d="m.267 5.103 12.538 7.237 5.224-.603 3.134-9.048-4.18-2.412-15.67 1.81z" fill="#ececed" fill-rule="evenodd"></path><path d="M.267 5.103v12.063l12.538 7.238V12.34zm12.538 7.237 5.224-.603v12.064l-5.224.603z" fill="#d2d2d4" fill-rule="evenodd"></path><path d="m18.029 11.737 3.134-9.048v12.064l-3.134 9.048z" fill="#b8b8bb" fill-rule="evenodd"></path><path d="m.267 5.103 12.538 7.237 5.224-.603 3.134-9.048m-3.134 9.048v12.064M12.805 12.34v12.064" fill="none" stroke="#83838a" stroke-width=".265"></path><path d="m.267 17.166 12.538 7.238 5.224-.603 3.134-9.048V2.689L16.983.277l-15.67 1.81L.268 5.102z" fill="none" stroke="#000000" stroke-width=".529"></path><path d="M16.852 3.319c-.637-.01-1.269-.156-1.755-.437-.487-.28-.739-.645-.757-1.013l-3.498.035c.111.43-.12.884-.694 1.215-.363.21-.812.34-1.281.392-.625.067-1.226.241-1.71.52-1.272.736-1.277 1.926-.013 2.664.734.423 1.146.957 1.248 1.509.956.059 1.88.297 2.613.72 1.279.73 3.34.727 4.613-.008.484-.28.785-.626.903-.987.088-.27.314-.53.678-.74.573-.33 1.359-.464 2.104-.4l.06-2.02c-.636-.01-1.268-.156-1.754-.437-.487-.28-.739-.645-.757-1.013z" fill="none"></path><path d="M17.277 4.302c.467.27 1.056.427 1.664.471l-.05 1.693c-.73-.014-1.467.14-2.023.462-.404.234-.655.522-.754.824-.107.33-.382.647-.823.902-1.161.672-3.041.674-4.208.007-.722-.417-1.618-.665-2.554-.749-.145-.541-.574-1.06-1.296-1.478-1.152-.675-1.147-1.762.014-2.433.44-.255.988-.414 1.559-.476.521-.057 1.02-.203 1.424-.436.556-.322.823-.748.8-1.17l2.926-.03c.076.352.348.693.815.963.473.274 1.07.432 1.687.474.073.356.346.702.819.976z" fill="#4286c5" fill-rule="evenodd"></path><g fill="#ffffff" font-family="sans-serif" font-size="3.217" stroke-width=".268" style="line-height: 0%;"><path d="M177.61 45.984h2.004v.43h-1.537v.925q.112-.038.223-.056.11-.02.222-.02.632 0 1.001.346.369.346.369.938 0 .609-.38.948-.378.336-1.068.336-.238 0-.485-.04-.246-.041-.508-.122v-.513q.227.124.47.184.242.061.513.061.437 0 .692-.23.255-.23.255-.624t-.255-.624q-.255-.23-.692-.23-.205 0-.41.045-.202.046-.414.142zm4.837 1.739q.367.078.571.326.208.248.208.612 0 .558-.385.864-.384.306-1.091.306-.238 0-.49-.048-.25-.046-.519-.14v-.492q.212.124.465.187t.528.063q.48 0 .73-.19.254-.189.254-.55 0-.334-.235-.521-.233-.19-.65-.19h-.44v-.42h.46q.377 0 .576-.148.2-.152.2-.435 0-.29-.207-.445-.205-.157-.589-.157-.21 0-.45.046-.24.045-.528.142v-.455q.29-.081.543-.122.256-.04.48-.04.582 0 .92.265.34.263.34.713 0 .313-.18.53-.18.216-.51.299z" font-family="Interstate" font-size="5.176" transform="scale(1.31486 .76054) rotate(45 142.927 -178.732)" style="line-height: 1.25;"></path></g></svg></g></g><g opacity="1"><g id="ec68e238-863e-4f94-b96c-39f91eb42014" transform="translate(0 0)"><svg x="-211" y="657" height="115.695" width="100.625" viewBox="0 0 26.624 30.611"><path d="M13.312.306v15l12.99-7.5z" fill="#4286c5" fill-rule="evenodd"></path><path d="m.321 7.806 12.99 7.5v-15z" fill="#26527b" fill-rule="evenodd"></path><path d="M13.312.306v15" fill="none" stroke="#020406" stroke-width=".265"></path><path d="m13.312 15.306 12.99-7.5-6.495 18.75-6.495 3.75z" fill="#26527b" fill-rule="evenodd"></path><path d="m.321 7.806 12.99 7.5v15l-6.494-3.75z" fill="#326ca2" fill-rule="evenodd"></path><path d="m.321 7.806 12.99 7.5 12.991-7.5-12.99 7.5v15" fill="none" stroke="#0e1e2d" stroke-width=".265"></path><path d="m13.312.306-12.99 7.5 6.495 18.75 6.495 3.75 6.495-3.75 6.495-18.75z" fill="none" stroke="#000000" stroke-width=".529"></path></svg></g></g><g opacity="1"><g id="cf041317-2cfd-4684-ab61-01ffa97b5ef5" transform="translate(0 0)"><svg x="-80" y="713" height="148.142" width="93" viewBox="0 0 24.606 39.196"><g transform="translate(-90.671 -137.288)"><path d="M91.985 141.821l14.632 8.448 7.316-4.224-14.632-8.447z" fill="#ececed" fill-rule="evenodd" stroke-width=".268"></path><path d="M91.985 165.958l-1.045 1.81v-1.207z" fill="#d2d2d4" fill-rule="evenodd" stroke-width=".268"></path><path d="M91.985 165.958l14.632 8.447-1.046 1.81-14.566-8.56zM106.617 174.405l-1.046 1.81h2.09z" fill="#d2d2d4" fill-rule="evenodd" stroke-width=".268"></path><path d="M91.985 141.821v24.137l14.632 8.447V150.27z" fill="#d2d2d4" fill-rule="evenodd" stroke-width=".268"></path><path d="M106.617 174.405l1.045 1.81 7.316-4.223v-1.207l-1.045-.603z" fill="#b8b8bb" fill-rule="evenodd" stroke-width=".268"></path><path d="M106.617 150.27l7.316-4.225v24.137l-7.316 4.223z" fill="#b8b8bb" fill-rule="evenodd" stroke-width=".268"></path><g fill="none" fill-rule="evenodd" stroke="#83838a"><path d="M113.933 170.182l-7.316 4.223-14.632-8.447-1.045 1.81M91.985 141.821l14.632 8.448 7.316-4.224M106.617 150.27v24.135M105.571 176.216l1.046-1.81 1.045 1.81M113.933 170.182l1.045 1.81" stroke-width=".26818"></path></g><path d="M90.94 167.768v-1.207l1.045-.603V141.82l7.316-4.223 14.632 8.447v24.137l1.045.603v1.207l-7.316 4.224h-2.09z" fill="none" fill-rule="evenodd" stroke="#000000" stroke-width=".529"></path><ellipse cx="141.009" cy="74.394" fill="#4286c5" rx="6.047" ry="4.714" stroke-width=".278" transform="matrix(.19572 .98066 .96381 .26658 0 0)"></ellipse><ellipse cx="141.009" cy="74.394" fill="#ffffff" rx="5.037" ry="3.927" stroke-width=".278" transform="matrix(.19572 .98066 .96381 .26658 0 0)"></ellipse><path d="M99.03 153.239c-3.067 2.89-1.034 7.41.27 9.702" fill="none" fill-rule="evenodd" stroke="#4286c5" stroke-width=".51973284"></path><g transform="translate(374.17 163.896) scale(.26818)"><ellipse cx="272.14" cy="-1124.64" fill="#4286c5" rx="3.335" ry="2.648" transform="matrix(.19572 .98066 .96381 .26658 0 0)"></ellipse><ellipse cx="290.38" cy="-1128.297" fill="#4286c5" rx="3.687" ry="2.835" transform="matrix(.19572 .98066 .96381 .26658 0 0)"></ellipse><ellipse cx="290.282" cy="-1113.221" fill="#4286c5" rx="3.51" ry="2.717" transform="matrix(.19572 .98066 .96381 .26658 0 0)"></ellipse><path d="M-1033.087-41.48c4.26 21.344 17.38 30.943 23.61 33.65M-1039.896-25.075c12.675 15.122 22.864 16.4 30.106 8.948" fill="none" fill-rule="evenodd" stroke="#4286c5" stroke-width="1.938"></path></g></g></svg></g></g><g opacity="1"><g id="1b66a7d9-741e-40cb-bb98-8b9133550ce8" transform="translate(0 0)"><svg x="-680" y="589" height="95.068" width="63" viewBox="0 0 16.669 25.153"><path d="M16.668 22.903q0 1.64-.864 2.09-.865.452-2.296-.375L3.161 18.645q-1.432-.828-2.296-2.276Q.001 14.92 0 13.279q0-.724.042-1.39.042-.667.166-1.394.124-.728.313-1.303.19-.574.51-1.038.32-.464.733-.684.415-.219 1.013-.146.598.073 1.32.489.106.061.497.58.39.52.881 1.166.492.645 1.28 1.394.787.749 1.58 1.206.793.458 1.58.619.788.16 1.279.082.491-.078.882-.147.39-.068.497-.007.722.417 1.32 1.036.598.618 1.012 1.315.414.697.734 1.53.32.834.509 1.627.19.793.314 1.665.124.871.165 1.585.042.714.042 1.439zM12.88 8.509q0 2.173-1.331 2.942-1.332.77-3.214-.317T5.121 7.74Q3.789 5.434 3.789 3.26q0-2.173 1.332-2.942 1.332-.769 3.214.318 1.882 1.086 3.214 3.393 1.331 2.307 1.331 4.48z" fill="#000" stroke="#000000" stroke-width=".268"></path></svg></g></g></g><g pointer-events="auto"></g><g pointer-events="auto"><g opacity="1"><g id="d2bfdea7-1b87-4687-9e2f-33efe36c5c52" transform="translate(0 0)"><svg x="-320" y="629" overflow="visible"><g transform="scale(1.4131949617798671) matrix(0.707 0.409 -0.707 0.409 0 0)"><circle cx="0" cy="0" fill="transparent" r="39"></circle><svg width="64" height="64" x="-32" y="-32" style="fill: rgb(255, 255, 255);"><svg width="64" height="64" viewBox="0 0 64 64" xmlns="http://www.w3.org/2000/svg"><defs><linearGradient x1="0%" y1="100%" x2="100%" y2="0%" id="AppSync_svg__a"><stop stop-color="#B0084D" offset="0%"></stop><stop stop-color="#FF4F8B" offset="100%"></stop></linearGradient></defs><g fill="none" fill-rule="evenodd"><g fill="url(#AppSync_svg__a)"><path d="M0 0h64v64H0z"></path></g><g fill="#FFF"><path d="m53.362 22.968-3.425-1.128c4.082 7.557 3.292 17.17-2.245 23.379C43.757 49.63 38.008 52 32.205 52c-3.157 0-6.331-.702-9.239-2.16l.913-1.779c7.441 3.732 16.82 1.98 22.3-4.163 5.008-5.613 5.63-14.718 1.734-21.558l-1.344 3.987-1.914-.631 2.017-5.984a1.008 1.008 0 0 1 1.276-.63L54 21.075l-.638 1.892ZM16.817 40.19l.567-3.371 1.99.328-1.008 5.984a.997.997 0 0 1-.475.69 1.014 1.014 0 0 1-.84.092L11 41.918l.638-1.892 3.413 1.124c-3.998-7.337-3.187-16.197 2.326-22.377 6.066-6.8 16.435-8.744 24.657-4.623l-.913 1.78c-7.41-3.717-16.762-1.966-22.23 4.163-4.94 5.537-5.663 13.491-2.074 20.097Zm6.988-3.208c0-.897.74-1.627 1.646-1.627.908 0 1.646.73 1.646 1.627a1.64 1.64 0 0 1-1.646 1.63 1.64 1.64 0 0 1-1.646-1.63Zm7.85-8.814c.272.065.552.108.844.108.263 0 .519-.03.765-.082l2.964 6.023a3.618 3.618 0 0 0-1.167 1.768h-6.105a3.605 3.605 0 0 0-1.108-1.72l3.807-6.097Zm.844-5.142c.908 0 1.647.73 1.647 1.628 0 .897-.739 1.627-1.647 1.627-.906 0-1.645-.73-1.645-1.627 0-.898.739-1.628 1.645-1.628Zm7.714 13.956a1.64 1.64 0 0 1-1.647 1.63 1.64 1.64 0 0 1-1.646-1.63c0-.897.74-1.627 1.646-1.627.908 0 1.647.73 1.647 1.627Zm-11.257.998h6.105a3.653 3.653 0 0 0 3.505 2.626c2.02 0 3.665-1.626 3.665-3.624 0-1.997-1.644-3.622-3.665-3.622-.168 0-.33.027-.49.049l-3.032-6.16a3.583 3.583 0 0 0 1.119-2.595c0-1.998-1.643-3.623-3.664-3.623-2.02 0-3.662 1.625-3.662 3.623 0 .99.405 1.885 1.056 2.539l-3.885 6.223a3.642 3.642 0 0 0-.557-.056c-2.02 0-3.663 1.625-3.663 3.622 0 1.998 1.643 3.624 3.663 3.624a3.652 3.652 0 0 0 3.505-2.626Z"></path></g></g></svg></svg></g></svg></g></g></g><g pointer-events="auto"><g opacity="1"><g id="462d313b-7dfa-4af0-afb8-078b315fe695" transform="translate(0 0)"><svg x="160" y="500" overflow="visible"><text stroke="#ffffff" stroke-width="4" font-family="Open Sans" y="36.5" font-size="25pt" fill="#f5b720" font-weight="bold" transform="matrix(0.707 0.409 -0.707 0.409 0 0)" xml:space="preserve"><tspan x="8" dy="0">Destination Bucket</tspan></text><text font-family="Open Sans" y="36.5" font-size="25pt" fill="#f5b720" font-weight="bold" transform="matrix(0.707 0.409 -0.707 0.409 0 0)" xml:space="preserve"><tspan x="8" dy="0">Destination Bucket</tspan></text></svg></g></g><g opacity="1"><g id="009689c2-d254-4b6e-95b9-85264c38bd02" transform="translate(0 0)"><svg x="-480" y="370" overflow="visible"><text stroke="#ffffff" stroke-width="4" font-family="Open Sans" y="36.5" font-size="25pt" fill="#f5b720" font-weight="bold" transform="matrix(0.707 0.409 -0.707 0.409 0 0)" xml:space="preserve"><tspan x="8" dy="0">Bucket</tspan></text><text font-family="Open Sans" y="36.5" font-size="25pt" fill="#f5b720" font-weight="bold" transform="matrix(0.707 0.409 -0.707 0.409 0 0)" xml:space="preserve"><tspan x="8" dy="0">Bucket</tspan></text></svg></g></g><g opacity="1"><g id="78670aa7-b4cd-458f-9e54-76222ed22729" transform="translate(0 0)"><svg x="-304" y="712" overflow="visible"><text stroke="#ffffff" stroke-width="4" font-family="Open Sans" y="36.5" font-size="25pt" fill="#f5b720" font-weight="bold" transform="matrix(0.707 0.409 -0.707 0.409 0 0)" xml:space="preserve"><tspan x="8" dy="0">Upload Bucket</tspan></text><text font-family="Open Sans" y="36.5" font-size="25pt" fill="#f5b720" font-weight="bold" transform="matrix(0.707 0.409 -0.707 0.409 0 0)" xml:space="preserve"><tspan x="8" dy="0">Upload Bucket</tspan></text></svg></g></g><g opacity="1"><g id="0dbd5634-1c76-4d1e-8c2c-85cc63b3dae5" transform="translate(0 0)"><svg x="-288" y="481" overflow="visible"><text stroke="#ffffff" stroke-width="4" font-family="Open Sans" y="36.5" font-size="25pt" fill="#f5b720" font-weight="bold" transform="matrix(0.707 0.409 -0.707 0.409 0 0)" xml:space="preserve"><tspan x="8" dy="0">Lambda Resolvers</tspan></text><text font-family="Open Sans" y="36.5" font-size="25pt" fill="#f5b720" font-weight="bold" transform="matrix(0.707 0.409 -0.707 0.409 0 0)" xml:space="preserve"><tspan x="8" dy="0">Lambda Resolvers</tspan></text></svg></g></g><g opacity="1"><g id="f81e438c-3644-4ba0-8e2e-1c16458795a3" transform="translate(0 0)"><svg x="-96" y="833" overflow="visible"><text stroke="#ffffff" stroke-width="4" font-family="Open Sans" y="36.5" font-size="25pt" fill="#f5b720" font-weight="bold" transform="matrix(0.707 0.409 -0.707 0.409 0 0)" xml:space="preserve"><tspan x="8" dy="0">CDN</tspan></text><text font-family="Open Sans" y="36.5" font-size="25pt" fill="#f5b720" font-weight="bold" transform="matrix(0.707 0.409 -0.707 0.409 0 0)" xml:space="preserve"><tspan x="8" dy="0">CDN</tspan></text></svg></g></g><g opacity="1"><g id="015a0581-3120-4a33-a71d-7f822f02c4e2" transform="translate(0 0)"><svg x="-64" y="629" overflow="visible"><text stroke="#ffffff" stroke-width="4" font-family="Open Sans" y="36.5" font-size="25pt" fill="#f5b720" font-weight="bold" transform="matrix(0.707 0.409 -0.707 0.409 0 0)" xml:space="preserve"><tspan x="8" dy="0">Media Handler</tspan></text><text font-family="Open Sans" y="36.5" font-size="25pt" fill="#f5b720" font-weight="bold" transform="matrix(0.707 0.409 -0.707 0.409 0 0)" xml:space="preserve"><tspan x="8" dy="0">Media Handler</tspan></text></svg></g></g><g opacity="1"><g id="a71bd3bd-7146-435e-8474-f3364cb2c676" transform="translate(0 0)"><svg x="-432" y="620" overflow="visible"><text stroke="#ffffff" stroke-width="4" font-family="Open Sans" y="36.5" font-size="25pt" fill="#f5b720" font-weight="bold" transform="matrix(0.707 0.409 -0.707 0.409 0 0)" xml:space="preserve"><tspan x="8" dy="0">AppSync</tspan></text><text font-family="Open Sans" y="36.5" font-size="25pt" fill="#f5b720" font-weight="bold" transform="matrix(0.707 0.409 -0.707 0.409 0 0)" xml:space="preserve"><tspan x="8" dy="0">AppSync</tspan></text></svg></g></g><g opacity="1"><g id="4bc4060c-ab44-4c8f-8de7-a2d77225f4d2" transform="translate(0 0)"><svg x="-704" y="666" overflow="visible"><text stroke="#ffffff" stroke-width="4" font-family="Open Sans" y="36.5" font-size="25pt" fill="#f5b720" font-weight="bold" transform="matrix(0.707 0.409 -0.707 0.409 0 0)" xml:space="preserve"><tspan x="8" dy="0">User</tspan></text><text font-family="Open Sans" y="36.5" font-size="25pt" fill="#f5b720" font-weight="bold" transform="matrix(0.707 0.409 -0.707 0.409 0 0)" xml:space="preserve"><tspan x="8" dy="0">User</tspan></text></svg></g></g><g opacity="1"><g id="ff2a18d4-2b84-4c3f-af6d-afb341424472" transform="translate(0 0)"><svg x="-656" y="490" overflow="visible"><text stroke="#ffffff" stroke-width="4" font-family="Open Sans" y="36.5" font-size="25pt" fill="#f5b720" font-weight="bold" transform="matrix(0.707 0.409 -0.707 0.409 0 0)" xml:space="preserve"><tspan x="8" dy="0">CDN</tspan></text><text font-family="Open Sans" y="36.5" font-size="25pt" fill="#f5b720" font-weight="bold" transform="matrix(0.707 0.409 -0.707 0.409 0 0)" xml:space="preserve"><tspan x="8" dy="0">CDN</tspan></text></svg></g></g><g opacity="1"><g id="81d404ab-b768-4ba5-8829-dd739de4a2cd" transform="translate(0 0)"><svg x="-80" y="379" overflow="visible"><text stroke="#ffffff" stroke-width="4" font-family="Open Sans" y="36.5" font-size="25pt" fill="#f5b720" font-weight="bold" transform="matrix(0.707 0.409 -0.707 0.409 0 0)" xml:space="preserve"><tspan x="8" dy="0">NoSQL Database</tspan></text><text font-family="Open Sans" y="36.5" font-size="25pt" fill="#f5b720" font-weight="bold" transform="matrix(0.707 0.409 -0.707 0.409 0 0)" xml:space="preserve"><tspan x="8" dy="0">NoSQL Database</tspan></text></svg></g></g><g opacity="1"><g id="4b60fe8d-7a14-449d-be5c-7d1ac269c1de" transform="translate(0 0)"><svg x="-528" y="564" overflow="visible"><text stroke="#ffffff" stroke-width="4" font-family="Open Sans" y="36.5" font-size="25pt" fill="#f5b720" font-weight="bold" transform="matrix(0.707 0.409 -0.707 0.409 0 0)" xml:space="preserve"><tspan x="8" dy="0">DNS</tspan></text><text font-family="Open Sans" y="36.5" font-size="25pt" fill="#f5b720" font-weight="bold" transform="matrix(0.707 0.409 -0.707 0.409 0 0)" xml:space="preserve"><tspan x="8" dy="0">DNS</tspan></text></svg></g></g></g><g pointer-events="auto"><g></g><g></g><g></g><g></g><g></g><g></g><g></g><g></g><g></g><g></g></g></g></svg>